<svg xmlns="http://www.w3.org/2000/svg" viewBox="0 0 830.41 200.77"><defs><style>.cls-1{font-size:115px;font-family:SegoeUI-Semibold, Segoe UI;font-weight:600;letter-spacing:-0.03em;}.cls-1,.cls-14{fill:#2e76bc;}.cls-2{letter-spacing:-0.03em;}.cls-3{letter-spacing:-0.02em;}.cls-4{letter-spacing:-0.01em;}.cls-5{letter-spacing:-0.03em;}.cls-6{letter-spacing:-0.03em;}.cls-7{letter-spacing:-0.03em;}.cls-8{letter-spacing:-0.02em;}.cls-9{letter-spacing:-0.02em;}.cls-10{letter-spacing:-0.03em;}.cls-11{letter-spacing:-0.03em;}.cls-12{letter-spacing:-0.02em;}.cls-13{letter-spacing:-0.01em;}.cls-15{fill:#fff;}.cls-16{fill:#e32729;stroke:#fff;stroke-miterlimit:10;stroke-width:4px;}</style></defs><title>Sample-Seal_1</title><g id="Layer_2" data-name="Layer 2"><g id="Layer_1-2" data-name="Layer 1"><text class="cls-1" transform="translate(132.71 151.69)">E<tspan class="cls-2" x="56.14" y="0">l</tspan><tspan class="cls-3" x="83.24" y="0">e</tspan><tspan class="cls-4" x="142.16" y="0">c</tspan><tspan class="cls-5" x="195.14" y="0">t</tspan><tspan class="cls-6" x="233.13" y="0">i</tspan><tspan class="cls-7" x="259.75" y="0">o</tspan><tspan class="cls-8" x="325.37" y="0">n</tspan><tspan class="cls-9" x="390.02" y="0">G</tspan><tspan class="cls-10" x="467.74" y="0">u</tspan><tspan class="cls-11" x="531.67" y="0">a</tspan><tspan class="cls-12" x="588.53" y="0">r</tspan><tspan class="cls-13" x="628.99" y="0">d</tspan></text><path class="cls-14" d="M89,46c0-15-11.73-27.19-26.15-27.19S36.72,31,36.72,46v2.31a154.69,154.69,0,0,0-18.1,4.22V46c0-25.37,19.85-46,44.24-46S107.1,20.64,107.1,46v6.53A154.53,154.53,0,0,0,89,48.32Z"/><path class="cls-14" d="M125.72,69.36v86.16A147.36,147.36,0,0,1,0,155.52V69.36a147.36,147.36,0,0,1,125.72,0Z"/><g id="_6Y9VCZ.tif" data-name="6Y9VCZ.tif"><path class="cls-15" d="M19.28,112.48c0,25,19.64,45.57,44.12,45.28,23.81-.29,43.08-20.46,43-45.46S86.86,67.1,62.7,67.12C38.74,67.13,19.28,87.47,19.28,112.48Zm77.47-.06c0,19.43-15.16,35.26-33.8,35.27s-34-15.75-34-35.18c0-19.65,15.4-35.54,34.29-35.32C81.71,77.4,96.75,93.06,96.75,112.42Z"/></g><path class="cls-16" d="M63.83,143.76s36-69.27,69.88-100.35a2.89,2.89,0,0,0-4.2-1.62c-3.18,1.41-36,13-68.51,70.79,0,0-7.61-17.88-22.43-16.53-6.79.61-9.88,7.75-9.59,10.87C29,106.92,39.07,103.43,63.83,143.76Z"/></g></g></svg>